<svg xmlns="http://www.w3.org/2000/svg" xmlns:xlink="http://www.w3.org/1999/xlink" aria-hidden="true" role="img" class="iconify iconify--logos" width="31.88" height="32" preserveAspectRatio="xMidYMid meet" viewBox="0 0 256 257"><defs><linearGradient id="IconifyId1813088fe1fbc01fb466" x1="-.828%" x2="57.636%" y1="7.652%" y2="78.411%"><stop offset="0%" stop-color="#41D1FF"/><stop offset="77.537%" stop-color="#BD34FE"/><stop offset="100%" stop-color="#BD34FE"/></linearGradient></defs><path fill="url(#IconifyId1813088fe1fbc01fb466)" d="M255.153 37.342c-2.034-11.248-11.958-19.845-23.64-19.845a23.642 23.642 0 0 0-23.64 23.64v11.97H57.087l-.004-1.282c0-11.39-9.24-20.63-20.63-20.63c-11.39 0-20.63 9.24-20.63 20.63c0 9.256 6.13 17.072 14.583 19.64l.005.002v.003l178.53.001c.003 0 .005.002.008.002c11.39 0 20.63-9.24 20.63-20.63s-9.24-20.63-20.63-20.63H222.3v-1.325l.002.001a23.642 23.642 0 0 0 10.993-21.238z"/><path fill="#FFDE33" d="m128.534 239.04l-11.517-39.75l-4.22 14.582a20.63 20.63 0 0 1-39.513-11.83l45.22-156.236a20.63 20.63 0 0 1 39.51 11.83l-28.01 96.758l4.21-14.54a20.63 20.63 0 0 1 39.514 11.83l-45.19 156.236a20.63 20.63 0 0 1-39.513-11.83z"/></svg>